<svg width="58" height="35" viewBox="0 0 58 35" fill="none" xmlns="http://www.w3.org/2000/svg">
<g id="g8">
<g id="g10">
<path id="path12" fill-rule="evenodd" clip-rule="evenodd" d="M29.5275 17.3282H31.2185L30.7989 18.824L29.1245 18.8281L29.5275 17.3282Z" fill="#0094D6"/>
<path id="path14" fill-rule="evenodd" clip-rule="evenodd" d="M34.7481 19.5991C33.7646 19.5991 33.3538 19.8744 33.0532 20.3714L33.2132 19.5991H31.6234L30.1523 25.1016H31.8525L32.6372 22.1018C32.8456 21.2322 33.1875 20.9216 33.9043 20.9216C34.6487 20.9216 34.8493 21.2322 34.6037 22.1018L33.8284 25.1016H35.4274L36.2683 21.8712C36.6668 20.2826 36.2458 19.5991 34.7481 19.5991Z" fill="#081997"/>
<path id="path16" fill-rule="evenodd" clip-rule="evenodd" d="M28.9304 19.5991L27.4688 25.1016H29.1686L30.6031 19.5991H28.9304Z" fill="#081997"/>
<path id="path18" fill-rule="evenodd" clip-rule="evenodd" d="M21.2109 25.1016H22.9109L23.6312 22.3237H23.9345L25.1256 25.1016H26.9637L25.4241 21.8712L28.1499 19.5991H26.3853L24.1256 21.3742H23.8867L24.9295 17.3273H23.2936L21.7715 23.0958L21.2109 25.1016Z" fill="#081997"/>
<path id="path20" fill-rule="evenodd" clip-rule="evenodd" d="M19.6125 19.5991C18.7027 19.5991 18.2552 19.8744 17.9548 20.3714L18.1238 19.5991H16.5246L15.0903 25.1016H16.7263L17.5018 22.1018C17.7472 21.2322 18.0889 20.9216 18.8424 20.9216C19.5592 20.9216 19.723 21.2322 19.5143 22.1018L18.7022 25.1016H20.3288L21.1695 21.8712C21.605 20.2826 21.1473 19.5991 19.6125 19.5991Z" fill="#081997"/>
<path id="path22" fill-rule="evenodd" clip-rule="evenodd" d="M0 25.1016H1.70026L3.10884 19.7324L3.46468 25.1016H4.96259L8.17252 19.7324L6.76395 25.1016H8.42747L9.95446 19.3684L10.4825 17.3273H8.02889L4.94337 22.5103L4.52762 17.3273H2.04624L0.514791 23.0958L0 25.1016Z" fill="#081997"/>
<path id="path24" fill-rule="evenodd" clip-rule="evenodd" d="M38.9934 25.1016C39.747 25.1016 40.233 24.7377 40.5814 24.3737L40.3903 25.1016H42.0905L43.6177 19.3684L44.1457 17.3273H42.4455L41.6554 20.3714C41.5737 19.9187 41.2842 19.5105 40.4754 19.5105H39.7951C38.3248 19.5105 37.5217 20.2826 37.167 21.7381L36.8133 22.9627C36.4367 24.3737 36.8247 25.1016 38.4235 25.1016H38.9934Z" fill="#081997"/>
<path id="path26" fill-rule="evenodd" clip-rule="evenodd" d="M9.73214 23.0958L9.60162 23.5574C9.29017 24.7377 9.8242 25.1016 10.8443 25.1016H11.5243C12.3056 25.1016 12.5675 24.9152 12.8404 24.64L12.7097 25.1016H14.07L15.0346 21.463C15.4279 19.9187 14.8681 19.4663 13.3794 19.4663H12.9014C11.1002 19.4663 10.6388 20.1495 10.3615 21.0547H11.9239C12.059 20.7795 12.1711 20.6909 12.5753 20.6909H13.0899C13.5954 20.6909 13.8005 20.9659 13.6747 21.463L13.522 22.1018C13.4604 21.7824 13.3234 21.5516 12.5423 21.5516H11.8255C10.6676 21.5516 10.0051 22.0045 9.73214 23.0958Z" fill="#081997"/>
<path id="path28" fill-rule="evenodd" clip-rule="evenodd" d="M11.9121 22.7864H12.7577C13.0334 22.7864 13.1492 22.9639 13.0675 23.3278C12.9417 23.8247 12.7616 23.8691 12.4584 23.8691H11.6037C11.3003 23.8691 11.1846 23.6917 11.303 23.3278C11.3646 23.0528 11.6088 22.7864 11.9121 22.7864Z" fill="white"/>
<path id="path30" fill-rule="evenodd" clip-rule="evenodd" d="M40.9154 22.786C40.7733 23.4161 40.3092 23.8242 39.7027 23.8242H39.2247C38.5448 23.8242 38.3876 23.4606 38.5353 22.786L38.7861 21.8719C38.935 21.1885 39.3081 20.9223 40.0251 20.9223H40.5028C41.0817 20.9223 41.3346 21.3304 41.2032 21.8719L40.9154 22.786Z" fill="white"/>
<path id="path32" fill-rule="evenodd" clip-rule="evenodd" d="M48.7827 25.1016L57.0733 21.8469L50.8656 17.3278L48.7827 25.1016Z" fill="#081997"/>
<path id="path34" fill-rule="evenodd" clip-rule="evenodd" d="M43.1177 25.1016H43.5995L45.6828 17.3273H45.201L43.1177 25.1016Z" fill="#081997"/>
<path id="path36" fill-rule="evenodd" clip-rule="evenodd" d="M44.6089 25.1016H45.465L47.5478 17.3273H46.6918L44.6089 25.1016Z" fill="#081997"/>
<path id="path38" fill-rule="evenodd" clip-rule="evenodd" d="M46.4487 25.1016H47.7644L49.8477 17.3273H48.5316L46.4487 25.1016Z" fill="#081997"/>
<path id="path40" fill-rule="evenodd" clip-rule="evenodd" d="M33.4694 6.38366C32.2213 4.03467 28.7524 2.33852 24.6858 2.33852C19.5754 2.33852 15.4072 5.01883 15.4072 8.30518C15.4072 11.5912 19.5754 14.2715 24.6858 14.2715C29.7964 14.2715 33.9648 11.5912 33.9648 8.30518C33.9648 7.87989 33.8942 7.46431 33.7612 7.06372L28.1707 11.7816C27.127 12.6621 26.0897 12.8432 25.8549 12.4184C25.0828 11.003 26.1568 9.33987 27.6001 7.25193C27.2643 7.60573 25.7541 8.9151 25.15 9.65825L23.3374 11.923C23.1698 12.1354 22.6662 12.9493 22.3306 12.3476C21.995 11.6754 21.9614 11.1798 22.3306 10.6492C22.767 10.0829 23.3374 9.16268 23.8408 8.41971C24.8142 6.86275 25.7541 5.09319 24.1766 6.86275L22.4649 8.9151C21.8272 9.83508 20.4512 11.7462 20.2834 12.0648C19.612 13.02 18.9744 11.8878 18.9744 11.003L21.1222 8.17208C21.9614 7.03954 22.834 5.09319 21.1896 6.01335L18.9744 7.28717C18.2024 7.71194 17.9004 7.57035 17.9674 7.25193L18.2024 6.2256C18.236 6.08414 18.4375 5.69497 18.6052 5.55321L19.075 5.12861C19.5787 4.66843 20.1826 4.73922 19.2427 5.55321C20.854 4.9516 22.2299 3.88986 22.5657 4.38542C22.7334 4.56226 23.002 4.88081 23.1024 5.27003C23.1698 5.624 22.5992 6.93337 22.4649 7.42876L24.6464 5.09319C25.6534 4.10224 26.4255 4.27908 26.5931 4.88081C26.7609 5.58858 26.4924 5.94255 25.989 6.93337C25.7541 7.49973 25.3178 8.17208 25.1163 8.52571L29.0434 4.63322C29.513 4.13766 29.8151 4.52684 30.0166 4.88081C30.3187 5.27003 30.3187 5.44699 30.0166 5.83621C29.1441 7.11034 27.4658 9.26907 27.1637 10.0829C26.7609 11.1798 26.9959 11.2506 27.6001 11.003L33.4694 6.38366Z" fill="#0094D6"/>
<path id="path42" fill-rule="evenodd" clip-rule="evenodd" d="M24.6862 1.61998C30.2487 1.61998 34.7857 4.6228 34.7857 8.30447C34.7857 11.9861 30.2487 14.989 24.6862 14.989C19.1237 14.989 14.5869 11.9861 14.5869 8.30447C14.5869 4.6228 19.1237 1.61998 24.6862 1.61998ZM24.6862 1.07184C30.5508 1.07184 35.3338 4.32089 35.3338 8.30447C35.3338 12.288 30.5508 15.5371 24.6862 15.5371C18.8216 15.5371 14.0386 12.288 14.0386 8.30447C14.0386 4.32089 18.8216 1.07184 24.6862 1.07184Z" fill="#081997"/>
<path id="path44" fill-rule="evenodd" clip-rule="evenodd" d="M39.694 1.48284L34.5255 5.54654L34.876 6.21737L40.2544 2.00189L40.2746 3.42897L41.8163 -9.87053e-05L37.9721 1.37153L39.694 1.48284ZM34.1016 5.8857L33.4702 6.38244L33.7621 7.0625L34.4271 6.52829C34.3342 6.30859 34.2265 6.09433 34.1016 5.8857Z" fill="#081997"/>
<path id="path46" d="M15.2221 28.9006C15.2769 28.8276 15.3166 28.757 15.3401 28.6874C15.3648 28.6188 15.3765 28.546 15.3765 28.4711C15.3765 28.3285 15.3316 28.215 15.2405 28.1292C15.1493 28.0435 15.0283 28.0007 14.8774 28.0007C14.7315 28.0007 14.5881 28.0521 14.4487 28.1561C14.3105 28.2589 14.1917 28.4035 14.0932 28.5866C13.955 28.8448 13.8628 29.2883 13.8168 29.9204C13.8103 30.0019 13.8059 30.063 13.8039 30.1026C13.7663 30.5686 13.7151 30.9156 13.6497 31.1428C13.5854 31.3689 13.4921 31.5701 13.3711 31.7459C13.2179 31.9741 13.0177 32.1507 12.7712 32.275C12.5238 32.3994 12.2506 32.4615 11.9506 32.4615C11.5425 32.4615 11.2126 32.3566 10.9597 32.1477C10.708 31.9387 10.5815 31.6678 10.5815 31.3356C10.5815 31.1599 10.619 31.0185 10.693 30.9113C10.7679 30.8053 10.8664 30.7517 10.9886 30.7517C11.0614 30.7517 11.1215 30.7741 11.1675 30.8192C11.2136 30.8642 11.2371 30.9242 11.2371 30.9971C11.2371 31.0582 11.2178 31.1085 11.1792 31.1482C11.1395 31.1877 11.0914 31.2081 11.0325 31.2081C11.0036 31.2081 10.9779 31.2049 10.9554 31.1984C10.9329 31.1919 10.9113 31.1824 10.8911 31.1707C10.8514 31.2059 10.8225 31.2477 10.8055 31.2969C10.7893 31.3463 10.7808 31.4084 10.7808 31.4845C10.7808 31.7619 10.8826 31.9858 11.0871 32.1562C11.2907 32.3255 11.5596 32.4101 11.8927 32.4101C12.1746 32.4101 12.4261 32.3371 12.6458 32.1916C12.8655 32.0469 13.0369 31.8391 13.1611 31.5692C13.2736 31.3194 13.3604 30.862 13.4215 30.1935C13.4417 29.9535 13.4599 29.7694 13.4751 29.6408C13.5103 29.3377 13.566 29.088 13.642 28.8921C13.7181 28.6971 13.8243 28.5278 13.9581 28.3853C14.0932 28.2385 14.2474 28.1272 14.4187 28.0511C14.5901 27.975 14.7701 27.9364 14.9587 27.9364C15.1817 27.9364 15.3658 27.9868 15.5082 28.0875C15.6519 28.1881 15.7237 28.3157 15.7237 28.4699C15.7237 28.5417 15.7043 28.6071 15.6668 28.667C15.6294 28.7259 15.5736 28.7817 15.4985 28.832C15.4568 28.8588 15.4184 28.8782 15.3819 28.8897C15.3464 28.9017 15.3111 28.9069 15.2758 28.9069C15.2695 28.9069 15.2608 28.9059 15.249 28.9037C15.2383 28.9017 15.2286 28.9006 15.2221 28.9006ZM14.8569 31.3046C14.8022 31.4171 14.7616 31.5251 14.7359 31.6291C14.7091 31.7331 14.6963 31.8327 14.6963 31.928C14.6963 32.0576 14.7261 32.1584 14.7874 32.228C14.8483 32.2976 14.935 32.333 15.0475 32.333C15.3229 32.333 15.6454 32.1841 16.016 31.8873C16.3867 31.5905 16.7551 31.1812 17.1215 30.6596L17.1656 30.6918C16.7927 31.2413 16.3962 31.673 15.9752 31.9858C15.5543 32.2986 15.1665 32.4552 14.8098 32.4552C14.6577 32.4552 14.5355 32.4079 14.4456 32.3138C14.3556 32.2193 14.3105 32.0908 14.3105 31.928C14.3105 31.7277 14.3737 31.5091 14.5001 31.2724C14.6276 31.0366 14.8001 30.8203 15.0176 30.6242C15.191 30.469 15.371 30.3489 15.5576 30.2633C15.7439 30.1775 15.9185 30.1346 16.0793 30.1346C16.1907 30.1346 16.2764 30.1562 16.3353 30.1989C16.3954 30.2418 16.4252 30.3019 16.4252 30.379C16.4252 30.5235 16.3031 30.6681 16.0589 30.8138C15.8145 30.9584 15.414 31.1223 14.8569 31.3046ZM14.8815 31.2467C15.2563 31.1342 15.5532 30.9981 15.7706 30.8407C15.9881 30.6821 16.0974 30.5267 16.0974 30.3713C16.0974 30.3169 16.0824 30.276 16.0535 30.2483C16.0245 30.2194 15.9817 30.2054 15.9248 30.2054C15.7986 30.2054 15.6324 30.306 15.4236 30.5064C15.2146 30.7068 15.0348 30.9542 14.8815 31.2467ZM18.6545 30.1475C18.5602 30.2772 18.4874 30.4037 18.4338 30.5267C18.3803 30.6499 18.3534 30.7539 18.3534 30.8375C18.3534 30.9103 18.3729 30.9649 18.4103 31.0001C18.4477 31.0357 18.5066 31.0537 18.5859 31.0537C18.6739 31.0537 18.7842 31.0195 18.9179 30.9499C19.052 30.8814 19.173 30.7913 19.279 30.68L19.3112 30.7142C19.1935 30.8395 19.0616 30.938 18.9149 31.0098C18.7682 31.0817 18.6256 31.1182 18.4874 31.1182C18.3504 31.1182 18.2422 31.0827 18.1661 31.0132C18.09 30.9435 18.0514 30.8449 18.0514 30.7197C18.0514 30.6681 18.0589 30.6135 18.0749 30.5556C18.091 30.4978 18.1145 30.4368 18.1457 30.3725C17.7483 30.6756 17.4171 30.9841 17.1527 31.2981C16.8881 31.6119 16.6663 31.9591 16.4885 32.3395L16.0397 32.3652L17.3702 30.2246L17.788 30.1989L16.9501 31.3881L16.9716 31.4074C17.1375 31.2144 17.3186 31.027 17.5168 30.8427C17.7139 30.6586 17.9282 30.4765 18.1586 30.2944L18.1714 30.2847C18.2422 30.2054 18.3053 30.1637 18.3599 30.1593L18.6545 30.1475ZM21.0275 30.8439C21.0714 30.921 21.1315 30.9799 21.2075 31.0195C21.2845 31.0592 21.3714 31.0794 21.4699 31.0794C21.5802 31.0794 21.6905 31.0495 21.7999 30.9884C21.908 30.9275 22.0195 30.8342 22.132 30.709L22.1629 30.7335C22.0547 30.8696 21.9424 30.9704 21.8256 31.0377C21.7099 31.1041 21.5889 31.1375 21.4635 31.1375C21.3735 31.1375 21.2889 31.1191 21.2108 31.0817C21.1323 31.0442 21.0617 30.9896 20.9996 30.9188C20.945 31.0902 20.856 31.2605 20.7339 31.4278C20.6119 31.5949 20.4598 31.7534 20.2797 31.9012C20.0902 32.0607 19.8931 32.1841 19.6916 32.2719C19.4892 32.3597 19.307 32.4036 19.1441 32.4036C18.9887 32.4036 18.8645 32.3575 18.7704 32.2664C18.676 32.1756 18.629 32.0566 18.629 31.9097C18.629 31.8219 18.6535 31.7127 18.7028 31.581C18.752 31.4481 18.8153 31.326 18.8934 31.2124L19.5866 30.2246L20.029 30.2054C19.607 30.7517 19.3177 31.161 19.1633 31.4331C19.0081 31.7042 18.931 31.9257 18.931 32.0951C18.931 32.1744 18.9535 32.2377 18.9986 32.2836C19.0435 32.3298 19.1067 32.3522 19.1882 32.3522C19.3124 32.3522 19.4559 32.3018 19.6219 32.2001C19.7869 32.0983 19.9475 31.9613 20.1019 31.7876C20.2635 31.6056 20.3932 31.4159 20.493 31.2176C20.5925 31.0206 20.6611 30.8138 20.6985 30.5985C20.675 30.5504 20.6579 30.5064 20.6461 30.4668C20.6344 30.4271 20.6279 30.3917 20.6279 30.3608C20.6279 30.3019 20.6461 30.2548 20.6813 30.2171C20.7169 30.1797 20.7629 30.1603 20.8195 30.1603C20.8968 30.1603 20.9569 30.1935 20.9974 30.259C21.0382 30.3254 21.0584 30.4207 21.0584 30.5459C21.0584 30.5878 21.0564 30.6329 21.051 30.6811C21.0457 30.7292 21.0382 30.7828 21.0275 30.8439ZM22.8658 30.2054C22.7822 30.3286 22.6643 30.5 22.5143 30.7197C21.9262 31.5862 21.6316 32.0779 21.6316 32.198C21.6316 32.229 21.6445 32.2569 21.6691 32.2826C21.6948 32.3073 21.7247 32.3201 21.7603 32.3201C21.9369 32.3201 22.1994 32.1669 22.5498 31.8604C22.8989 31.5541 23.2514 31.1567 23.6048 30.6671L23.6585 30.7013C23.2354 31.2477 22.8561 31.6678 22.5198 31.9591C22.1833 32.2515 21.9102 32.3971 21.7014 32.3971C21.6049 32.3971 21.5256 32.364 21.4623 32.2986C21.3991 32.2322 21.3682 32.1477 21.3682 32.0447C21.3682 31.9761 21.3906 31.8841 21.4366 31.7683C21.4827 31.6538 21.546 31.5369 21.6253 31.4203L22.4168 30.2376L22.8658 30.2054ZM23.0264 29.3162C23.0264 29.2563 23.0478 29.2049 23.0908 29.1631C23.1336 29.1212 23.186 29.0999 23.2471 29.0999C23.305 29.0999 23.3576 29.1212 23.4025 29.1631C23.4474 29.2049 23.4699 29.2541 23.4699 29.3107C23.4699 29.3688 23.4464 29.4212 23.3993 29.4673C23.3521 29.5133 23.2996 29.5369 23.2407 29.5369C23.1798 29.5369 23.1282 29.5155 23.0875 29.4736C23.0468 29.4319 23.0264 29.3795 23.0264 29.3162ZM26.4737 30.6608L26.5113 30.6918C26.1031 31.2617 25.7379 31.689 25.4164 31.9751C25.0951 32.2612 24.8198 32.4036 24.5895 32.4036C24.4843 32.4036 24.3997 32.3694 24.3334 32.2998C24.268 32.2312 24.2348 32.1392 24.2348 32.0234C24.2348 31.8519 24.3955 31.5434 24.718 31.0999C24.7534 31.0475 24.7811 31.0088 24.7993 30.9831C24.9697 30.7474 25.0747 30.591 25.1164 30.5139C25.1583 30.4379 25.1797 30.38 25.1797 30.3404C25.1797 30.3007 25.1647 30.2655 25.1336 30.2364C25.1036 30.2074 25.0672 30.1926 25.0253 30.1926C24.7683 30.1926 24.4511 30.3907 24.0742 30.7859C23.6971 31.1812 23.3436 31.6987 23.0125 32.3395L22.5637 32.3714L23.921 30.2119L24.3506 30.1862L23.5599 31.2917L23.5846 31.3034C23.8739 30.9048 24.1418 30.608 24.388 30.4132C24.6356 30.2194 24.8679 30.1218 25.0854 30.1218C25.1947 30.1218 25.2857 30.1538 25.3585 30.2171C25.4324 30.2815 25.4688 30.3586 25.4688 30.4506C25.4688 30.5888 25.3575 30.8095 25.1358 31.1126C25.0393 31.2467 24.9644 31.3526 24.9096 31.4319C24.7341 31.6955 24.6225 31.8733 24.5756 31.9644C24.5284 32.0554 24.5048 32.1283 24.5048 32.1851C24.5048 32.2312 24.5199 32.2664 24.5509 32.2901C24.5808 32.3146 24.6237 32.3265 24.6806 32.3265C24.8562 32.3265 25.1091 32.1756 25.4368 31.8733C25.7656 31.5713 26.1116 31.1662 26.4737 30.6608ZM27.9628 30.6489L28.2458 30.2246L28.6881 30.1989L27.2409 32.3007C27.603 32.2312 27.9683 32.0544 28.3379 31.7683C28.7073 31.4824 29.0449 31.1159 29.3501 30.6681L29.3877 30.709C29.0695 31.1747 28.7225 31.5508 28.3443 31.8369C27.966 32.122 27.5826 32.3007 27.1905 32.3714C26.8433 32.9758 26.4503 33.4352 26.011 33.7502C25.572 34.0652 25.1038 34.2227 24.6077 34.2227C24.3024 34.2227 24.0602 34.1583 23.8802 34.0309C23.7003 33.9034 23.6103 33.7341 23.6103 33.523C23.6103 33.3474 23.6736 33.2018 23.7988 33.086C23.9243 32.9693 24.0797 32.9114 24.2648 32.9114C24.3131 32.9114 24.3569 32.9135 24.3965 32.9179C24.4362 32.9221 24.4738 32.9274 24.5102 32.9361L24.4973 32.9917C24.4802 32.9917 24.4631 32.9907 24.4438 32.9895C24.4244 32.9885 24.402 32.9885 24.3741 32.9885C24.2488 32.9885 24.1448 33.0379 24.0624 33.1374C23.9799 33.237 23.9382 33.3636 23.9382 33.5166C23.9382 33.7053 24.0024 33.8583 24.1309 33.9762C24.2595 34.093 24.4288 34.1519 24.6387 34.1519C24.9547 34.1519 25.2505 34.0598 25.5269 33.8755C25.8032 33.6914 26.1043 33.3784 26.431 32.9371C26.5253 32.8117 26.6613 32.6167 26.8391 32.3522C27.017 32.0876 27.1529 31.8948 27.2474 31.7758L27.2281 31.7598C27.0255 31.9741 26.8284 32.1359 26.6388 32.245C26.448 32.3554 26.2702 32.4101 26.1043 32.4101C25.9983 32.4101 25.9082 32.3672 25.8354 32.2814C25.7613 32.1958 25.7249 32.0886 25.7249 31.9613C25.7249 31.7748 25.7828 31.5723 25.8975 31.3558C26.0132 31.1395 26.1716 30.938 26.3742 30.7517C26.565 30.5738 26.7641 30.4336 26.973 30.3317C27.1808 30.2299 27.364 30.1797 27.5237 30.1797C27.6597 30.1797 27.7647 30.2194 27.8386 30.2997C27.9136 30.379 27.9543 30.4957 27.9628 30.6489ZM27.4797 30.2376C27.3963 30.2376 27.2891 30.2793 27.1594 30.3628C27.0299 30.4464 26.897 30.5621 26.7608 30.709C26.5637 30.9178 26.4073 31.1363 26.2916 31.3635C26.1749 31.5905 26.117 31.7855 26.117 31.9484C26.117 32.0598 26.1374 32.1412 26.1771 32.1948C26.2167 32.2482 26.2777 32.275 26.3624 32.275C26.4577 32.275 26.5712 32.2333 26.7032 32.1507C26.8337 32.0684 26.9795 31.9451 27.1402 31.7823C27.3244 31.5937 27.4722 31.3892 27.5836 31.1662C27.6939 30.9445 27.7497 30.7517 27.7497 30.5856C27.7497 30.4646 27.7283 30.3758 27.6854 30.3211C27.6427 30.2655 27.5741 30.2376 27.4797 30.2376ZM33.407 29.5626C32.9593 30.3661 32.5532 30.9692 32.188 31.372C31.8238 31.7758 31.4477 32.0427 31.0609 32.1723C31.0898 32.1701 31.1327 32.1679 31.1894 32.1648C31.2452 32.1616 31.2806 32.1594 31.2923 32.1594C31.5752 32.1594 31.8022 32.2185 31.9738 32.335C32.1451 32.4519 32.2307 32.6029 32.2307 32.7882C32.2307 32.8054 32.2275 32.8374 32.2212 32.8857C32.219 32.9017 32.2179 32.9147 32.2179 32.9232C32.5275 32.5386 33.1211 31.9494 33.9973 31.1577C34.2191 30.9542 34.3884 30.7998 34.505 30.6928L34.5361 30.727C34.4012 30.8557 34.2041 31.0357 33.947 31.2702C33.0289 32.1112 32.443 32.7047 32.188 33.0517C32.1375 33.1641 32.0733 33.2531 31.9962 33.3175C31.9191 33.3808 31.8386 33.4128 31.7551 33.4128C31.7445 33.4128 31.7338 33.4073 31.7221 33.3968C31.7101 33.3871 31.7049 33.3764 31.7049 33.3656C31.7049 33.3484 31.7326 33.3163 31.7895 33.2681C31.8226 33.2392 31.8483 33.2157 31.8643 33.1997C31.8708 33.1718 31.8763 33.1449 31.8795 33.1192C31.8827 33.0935 31.8837 33.0668 31.8837 33.0389C31.8837 32.8149 31.7959 32.6233 31.6201 32.4637C31.4435 32.303 31.2228 32.2215 30.9571 32.2173C30.7289 32.3051 30.5498 32.3652 30.4215 32.3983C30.2929 32.4315 30.1825 32.4487 30.0904 32.4487C30.0315 32.4487 29.9898 32.4433 29.9662 32.4325C29.9415 32.4228 29.9297 32.4058 29.9297 32.3832C29.9297 32.317 30.0176 32.2654 30.1921 32.228C30.3667 32.1904 30.6271 32.1679 30.9731 32.1594C31.1402 32.1112 31.2923 32.033 31.4294 31.9257C31.5667 31.8177 31.7134 31.6558 31.8698 31.4395C32.008 31.2532 32.205 30.9413 32.4612 30.5022C32.7171 30.063 32.9228 29.7308 33.0782 29.5048C32.7954 29.4629 32.5597 29.3537 32.3722 29.177C32.1836 29.0002 32.0893 28.8031 32.0893 28.5856C32.0893 28.3843 32.1536 28.2245 32.2811 28.1035C32.4085 27.9836 32.5822 27.9237 32.8019 27.9237C32.865 27.9237 32.9281 27.9311 32.9914 27.9471C33.0558 27.9633 33.1189 27.9878 33.181 28.0222L33.1628 28.0661C33.1059 28.0349 33.0459 28.0114 32.9829 27.9965C32.9186 27.9825 32.852 27.975 32.7835 27.975C32.5993 27.975 32.4482 28.0361 32.3305 28.1583C32.2127 28.2814 32.1536 28.4325 32.1536 28.6125C32.1536 28.8084 32.2447 28.9894 32.4258 29.1533C32.6079 29.3184 32.8351 29.4202 33.1059 29.4598C33.407 28.9884 33.7691 28.6103 34.1912 28.3252C34.6122 28.0404 35.0096 27.8979 35.3824 27.8979C35.5324 27.8979 35.6513 27.9344 35.7381 28.0062C35.8249 28.079 35.8688 28.1776 35.8688 28.3028C35.8688 28.4774 35.7895 28.6542 35.6321 28.8341C35.4735 29.0142 35.2592 29.1693 34.9893 29.299C34.8072 29.3848 34.5972 29.4512 34.3573 29.4985C34.1173 29.5454 33.8689 29.5691 33.6117 29.5691C33.5549 29.5691 33.512 29.5679 33.4841 29.5669C33.4563 29.5659 33.4306 29.5647 33.407 29.5626ZM33.4412 29.5112C33.4649 29.5133 33.4905 29.5145 33.5205 29.5155C33.5496 29.5165 33.5934 29.5177 33.6524 29.5177C33.8612 29.5177 34.0572 29.5005 34.2416 29.4673C34.4257 29.4342 34.5995 29.3836 34.7621 29.3174C35.0258 29.2122 35.24 29.0688 35.4039 28.8877C35.5678 28.7056 35.6503 28.5256 35.6503 28.3477C35.6503 28.2375 35.6171 28.1464 35.5496 28.0758C35.4832 28.0039 35.3964 27.9686 35.2892 27.9686C35.014 27.9686 34.712 28.1035 34.384 28.3746C34.0572 28.6457 33.7424 29.0239 33.4412 29.5112ZM36.2813 30.2054C36.1976 30.3286 36.0798 30.5 35.9299 30.7197C35.3418 31.5862 35.0472 32.0779 35.0472 32.198C35.0472 32.229 35.06 32.2569 35.0846 32.2826C35.1103 32.3073 35.1403 32.3201 35.1757 32.3201C35.3525 32.3201 35.6149 32.1669 35.9653 31.8604C36.3145 31.5541 36.667 31.1567 37.0204 30.6671L37.074 30.7013C36.6509 31.2477 36.2716 31.6678 35.9352 31.9591C35.5989 32.2515 35.3256 32.3971 35.1168 32.3971C35.0203 32.3971 34.9412 32.364 34.8779 32.2986C34.8147 32.2322 34.7836 32.1477 34.7836 32.0447C34.7836 31.9761 34.8061 31.8841 34.8522 31.7683C34.8983 31.6538 34.9614 31.5369 35.0407 31.4203L35.8324 30.2376L36.2813 30.2054ZM36.442 29.3162C36.442 29.2563 36.4634 29.2049 36.5063 29.1631C36.5492 29.1212 36.6016 29.0999 36.6625 29.0999C36.7206 29.0999 36.773 29.1212 36.8179 29.1631C36.863 29.2049 36.8855 29.2541 36.8855 29.3107C36.8855 29.3688 36.862 29.4212 36.8147 29.4673C36.7675 29.5133 36.7151 29.5369 36.6562 29.5369C36.5951 29.5369 36.5437 29.5155 36.5031 29.4736C36.4622 29.4319 36.442 29.3795 36.442 29.3162ZM40.4129 28.8246C40.4356 28.7592 40.4526 28.7046 40.4623 28.6595C40.473 28.6146 40.4785 28.5739 40.4785 28.5385C40.4785 28.4217 40.4538 28.3329 40.4045 28.2718C40.3553 28.2107 40.2845 28.1808 40.1924 28.1808C40.0006 28.1808 39.7596 28.3522 39.4693 28.6939C39.18 29.0366 38.8361 29.5574 38.4387 30.2568H39.8537L39.7756 30.3276H38.3894L37.1307 32.3522C36.7354 32.9907 36.3336 33.4609 35.9255 33.763C35.5174 34.0652 35.0814 34.2162 34.6165 34.2162C34.278 34.2162 34.0154 34.1519 33.8291 34.0244C33.6427 33.8969 33.5494 33.7181 33.5494 33.4888C33.5494 33.3248 33.6083 33.1888 33.7273 33.0775C33.845 32.9671 33.9939 32.9114 34.1718 32.9114C34.2179 32.9114 34.2628 32.9135 34.3078 32.9179C34.3528 32.9221 34.399 32.9274 34.4451 32.9361L34.4322 32.979C34.4182 32.9768 34.4054 32.9758 34.3947 32.9758C34.3838 32.9758 34.3668 32.9758 34.3411 32.9758C34.2029 32.9758 34.0894 33.0239 33.9994 33.1192C33.9094 33.2145 33.8644 33.3357 33.8644 33.4824C33.8644 33.6817 33.9361 33.8445 34.0797 33.973C34.2221 34.1005 34.4085 34.1648 34.6369 34.1648C34.9861 34.1648 35.3353 34.0052 35.6843 33.6859C36.0337 33.3667 36.46 32.8044 36.9615 31.9977L38.0037 30.3276H37.4886L37.5485 30.2568H38.0413L38.6145 29.403C38.8949 28.982 39.18 28.6617 39.4681 28.441C39.7574 28.2204 40.038 28.11 40.3103 28.11C40.4494 28.11 40.563 28.1421 40.6498 28.2075C40.7366 28.2718 40.7805 28.3554 40.7805 28.4582C40.7805 28.5577 40.7484 28.6403 40.683 28.7056C40.6177 28.7699 40.5277 28.8096 40.4129 28.8246ZM39.1169 31.3046C39.0621 31.4171 39.0214 31.5251 38.9957 31.6291C38.969 31.7331 38.9562 31.8327 38.9562 31.928C38.9562 32.0576 38.986 32.1584 39.0471 32.228C39.1082 32.2976 39.195 32.333 39.3075 32.333C39.5828 32.333 39.9051 32.1841 40.2759 31.8873C40.6464 31.5905 41.015 31.1812 41.3814 30.6596L41.4253 30.6918C41.0527 31.2413 40.6561 31.673 40.2351 31.9858C39.8141 32.2986 39.4264 32.4552 39.0696 32.4552C38.9174 32.4552 38.7954 32.4079 38.7054 32.3138C38.6153 32.2193 38.5704 32.0908 38.5704 31.928C38.5704 31.7277 38.6335 31.5091 38.76 31.2724C38.8874 31.0366 39.06 30.8203 39.2775 30.6242C39.4509 30.469 39.631 30.3489 39.8173 30.2633C40.0036 30.1775 40.1784 30.1346 40.3391 30.1346C40.4505 30.1346 40.5363 30.1562 40.5952 30.1989C40.6551 30.2418 40.6851 30.3019 40.6851 30.379C40.6851 30.5235 40.563 30.6681 40.3188 30.8138C40.0744 30.9584 39.6739 31.1223 39.1169 31.3046ZM39.1413 31.2467C39.5163 31.1342 39.813 30.9981 40.0306 30.8407C40.2481 30.6821 40.3573 30.5267 40.3573 30.3713C40.3573 30.3169 40.3423 30.276 40.3134 30.2483C40.2845 30.2194 40.2416 30.2054 40.1848 30.2054C40.0585 30.2054 39.8924 30.306 39.6836 30.5064C39.4746 30.7068 39.2947 30.9542 39.1413 31.2467Z" fill="#0094D6"/>
<path id="path48" d="M15.2221 28.9006C15.2769 28.8276 15.3166 28.757 15.3401 28.6874C15.3648 28.6188 15.3765 28.546 15.3765 28.4711C15.3765 28.3285 15.3316 28.215 15.2405 28.1292C15.1493 28.0435 15.0283 28.0007 14.8774 28.0007C14.7315 28.0007 14.5881 28.0521 14.4487 28.1561C14.3105 28.2589 14.1917 28.4035 14.0932 28.5866C13.955 28.8448 13.8628 29.2883 13.8168 29.9204C13.8103 30.0019 13.8059 30.063 13.8039 30.1026C13.7663 30.5686 13.7151 30.9156 13.6497 31.1428C13.5854 31.3689 13.4921 31.5701 13.3711 31.7459C13.2179 31.9741 13.0177 32.1507 12.7712 32.275C12.5238 32.3994 12.2506 32.4615 11.9506 32.4615C11.5425 32.4615 11.2126 32.3566 10.9597 32.1477C10.708 31.9387 10.5815 31.6678 10.5815 31.3356C10.5815 31.1599 10.619 31.0185 10.693 30.9113C10.7679 30.8053 10.8664 30.7517 10.9886 30.7517C11.0614 30.7517 11.1215 30.7741 11.1675 30.8192C11.2136 30.8642 11.2371 30.9242 11.2371 30.9971C11.2371 31.0582 11.2178 31.1085 11.1792 31.1482C11.1395 31.1877 11.0914 31.2081 11.0325 31.2081C11.0036 31.2081 10.9779 31.2049 10.9554 31.1984C10.9329 31.1919 10.9113 31.1824 10.8911 31.1707C10.8514 31.2059 10.8225 31.2477 10.8055 31.2969C10.7893 31.3463 10.7808 31.4084 10.7808 31.4845C10.7808 31.7619 10.8826 31.9858 11.0871 32.1562C11.2907 32.3255 11.5596 32.4101 11.8927 32.4101C12.1746 32.4101 12.4261 32.3371 12.6458 32.1916C12.8655 32.0469 13.0369 31.8391 13.1611 31.5692C13.2736 31.3194 13.3604 30.862 13.4215 30.1935C13.4417 29.9535 13.4599 29.7694 13.4751 29.6408C13.5103 29.3377 13.566 29.088 13.642 28.8921C13.7181 28.6971 13.8243 28.5278 13.9581 28.3853C14.0932 28.2385 14.2474 28.1272 14.4187 28.0511C14.5901 27.975 14.7701 27.9364 14.9587 27.9364C15.1817 27.9364 15.3658 27.9868 15.5082 28.0875C15.6519 28.1881 15.7237 28.3157 15.7237 28.4699C15.7237 28.5417 15.7043 28.6071 15.6668 28.667C15.6294 28.7259 15.5736 28.7817 15.4985 28.832C15.4568 28.8588 15.4184 28.8782 15.3819 28.8897C15.3464 28.9017 15.3111 28.9069 15.2758 28.9069C15.2695 28.9069 15.2608 28.9059 15.249 28.9037C15.2383 28.9017 15.2286 28.9006 15.2221 28.9006ZM14.8569 31.3046C14.8022 31.4171 14.7616 31.5251 14.7359 31.6291C14.7091 31.7331 14.6963 31.8327 14.6963 31.928C14.6963 32.0576 14.7261 32.1584 14.7874 32.228C14.8483 32.2976 14.935 32.333 15.0475 32.333C15.3229 32.333 15.6454 32.1841 16.016 31.8873C16.3867 31.5905 16.7551 31.1812 17.1215 30.6596L17.1656 30.6918C16.7927 31.2413 16.3962 31.673 15.9752 31.9858C15.5543 32.2986 15.1665 32.4552 14.8098 32.4552C14.6577 32.4552 14.5355 32.4079 14.4456 32.3138C14.3556 32.2193 14.3105 32.0908 14.3105 31.928C14.3105 31.7277 14.3737 31.5091 14.5001 31.2724C14.6276 31.0366 14.8001 30.8203 15.0176 30.6242C15.191 30.469 15.371 30.3489 15.5576 30.2633C15.7439 30.1775 15.9185 30.1346 16.0793 30.1346C16.1907 30.1346 16.2764 30.1562 16.3353 30.1989C16.3954 30.2418 16.4252 30.3019 16.4252 30.379C16.4252 30.5235 16.3031 30.6681 16.0589 30.8138C15.8145 30.9584 15.414 31.1223 14.8569 31.3046ZM14.8815 31.2467C15.2563 31.1342 15.5532 30.9981 15.7706 30.8407C15.9881 30.6821 16.0974 30.5267 16.0974 30.3713C16.0974 30.3169 16.0824 30.276 16.0535 30.2483C16.0245 30.2194 15.9817 30.2054 15.9248 30.2054C15.7986 30.2054 15.6324 30.306 15.4236 30.5064C15.2146 30.7068 15.0348 30.9542 14.8815 31.2467ZM18.6545 30.1475C18.5602 30.2772 18.4874 30.4037 18.4338 30.5267C18.3803 30.6499 18.3534 30.7539 18.3534 30.8375C18.3534 30.9103 18.3729 30.9649 18.4103 31.0001C18.4477 31.0357 18.5066 31.0537 18.5859 31.0537C18.6739 31.0537 18.7842 31.0195 18.9179 30.9499C19.052 30.8814 19.173 30.7913 19.279 30.68L19.3112 30.7142C19.1935 30.8395 19.0616 30.938 18.9149 31.0098C18.7682 31.0817 18.6256 31.1182 18.4874 31.1182C18.3504 31.1182 18.2422 31.0827 18.1661 31.0132C18.09 30.9435 18.0514 30.8449 18.0514 30.7197C18.0514 30.6681 18.0589 30.6135 18.0749 30.5556C18.091 30.4978 18.1145 30.4368 18.1457 30.3725C17.7483 30.6756 17.4171 30.9841 17.1527 31.2981C16.8881 31.6119 16.6663 31.9591 16.4885 32.3395L16.0397 32.3652L17.3702 30.2246L17.788 30.1989L16.9501 31.3881L16.9716 31.4074C17.1375 31.2144 17.3186 31.027 17.5168 30.8427C17.7139 30.6586 17.9282 30.4765 18.1586 30.2944L18.1714 30.2847C18.2422 30.2054 18.3053 30.1637 18.3599 30.1593L18.6545 30.1475ZM21.0275 30.8439C21.0714 30.921 21.1315 30.9799 21.2075 31.0195C21.2845 31.0592 21.3714 31.0794 21.4699 31.0794C21.5802 31.0794 21.6905 31.0495 21.7999 30.9884C21.908 30.9275 22.0195 30.8342 22.132 30.709L22.1629 30.7335C22.0547 30.8696 21.9424 30.9704 21.8256 31.0377C21.7099 31.1041 21.5889 31.1375 21.4635 31.1375C21.3735 31.1375 21.2889 31.1191 21.2108 31.0817C21.1323 31.0442 21.0617 30.9896 20.9996 30.9188C20.945 31.0902 20.856 31.2605 20.7339 31.4278C20.6119 31.5949 20.4598 31.7534 20.2797 31.9012C20.0902 32.0607 19.8931 32.1841 19.6916 32.2719C19.4892 32.3597 19.307 32.4036 19.1441 32.4036C18.9887 32.4036 18.8645 32.3575 18.7704 32.2664C18.676 32.1756 18.629 32.0566 18.629 31.9097C18.629 31.8219 18.6535 31.7127 18.7028 31.581C18.752 31.4481 18.8153 31.326 18.8934 31.2124L19.5866 30.2246L20.029 30.2054C19.607 30.7517 19.3177 31.161 19.1633 31.4331C19.0081 31.7042 18.931 31.9257 18.931 32.0951C18.931 32.1744 18.9535 32.2377 18.9986 32.2836C19.0435 32.3298 19.1067 32.3522 19.1882 32.3522C19.3124 32.3522 19.4559 32.3018 19.6219 32.2001C19.7869 32.0983 19.9475 31.9613 20.1019 31.7876C20.2635 31.6056 20.3932 31.4159 20.493 31.2176C20.5925 31.0206 20.6611 30.8138 20.6985 30.5985C20.675 30.5504 20.6579 30.5064 20.6461 30.4668C20.6344 30.4271 20.6279 30.3917 20.6279 30.3608C20.6279 30.3019 20.6461 30.2548 20.6813 30.2171C20.7169 30.1797 20.7629 30.1603 20.8195 30.1603C20.8968 30.1603 20.9569 30.1935 20.9974 30.259C21.0382 30.3254 21.0584 30.4207 21.0584 30.5459C21.0584 30.5878 21.0564 30.6329 21.051 30.6811C21.0457 30.7292 21.0382 30.7828 21.0275 30.8439ZM22.8658 30.2054C22.7822 30.3286 22.6643 30.5 22.5143 30.7197C21.9262 31.5862 21.6316 32.0779 21.6316 32.198C21.6316 32.229 21.6445 32.2569 21.6691 32.2826C21.6948 32.3073 21.7247 32.3201 21.7603 32.3201C21.9369 32.3201 22.1994 32.1669 22.5498 31.8604C22.8989 31.5541 23.2514 31.1567 23.6048 30.6671L23.6585 30.7013C23.2354 31.2477 22.8561 31.6678 22.5198 31.9591C22.1833 32.2515 21.9102 32.3971 21.7014 32.3971C21.6049 32.3971 21.5256 32.364 21.4623 32.2986C21.3991 32.2322 21.3682 32.1477 21.3682 32.0447C21.3682 31.9761 21.3906 31.8841 21.4366 31.7683C21.4827 31.6538 21.546 31.5369 21.6253 31.4203L22.4168 30.2376L22.8658 30.2054ZM23.0264 29.3162C23.0264 29.2563 23.0478 29.2049 23.0908 29.1631C23.1336 29.1212 23.186 29.0999 23.2471 29.0999C23.305 29.0999 23.3576 29.1212 23.4025 29.1631C23.4474 29.2049 23.4699 29.2541 23.4699 29.3107C23.4699 29.3688 23.4464 29.4212 23.3993 29.4673C23.3521 29.5133 23.2996 29.5369 23.2407 29.5369C23.1798 29.5369 23.1282 29.5155 23.0875 29.4736C23.0468 29.4319 23.0264 29.3795 23.0264 29.3162ZM26.4737 30.6608L26.5113 30.6918C26.1031 31.2617 25.7379 31.689 25.4164 31.9751C25.0951 32.2612 24.8198 32.4036 24.5895 32.4036C24.4843 32.4036 24.3997 32.3694 24.3334 32.2998C24.268 32.2312 24.2348 32.1392 24.2348 32.0234C24.2348 31.8519 24.3955 31.5434 24.718 31.0999C24.7534 31.0475 24.7811 31.0088 24.7993 30.9831C24.9697 30.7474 25.0747 30.591 25.1164 30.5139C25.1583 30.4379 25.1797 30.38 25.1797 30.3404C25.1797 30.3007 25.1647 30.2655 25.1336 30.2364C25.1036 30.2074 25.0672 30.1926 25.0253 30.1926C24.7683 30.1926 24.4511 30.3907 24.0742 30.7859C23.6971 31.1812 23.3436 31.6987 23.0125 32.3395L22.5637 32.3714L23.921 30.2119L24.3506 30.1862L23.5599 31.2917L23.5846 31.3034C23.8739 30.9048 24.1418 30.608 24.388 30.4132C24.6356 30.2194 24.8679 30.1218 25.0854 30.1218C25.1947 30.1218 25.2857 30.1538 25.3585 30.2171C25.4324 30.2815 25.4688 30.3586 25.4688 30.4506C25.4688 30.5888 25.3575 30.8095 25.1358 31.1126C25.0393 31.2467 24.9644 31.3526 24.9096 31.4319C24.7341 31.6955 24.6225 31.8733 24.5756 31.9644C24.5284 32.0554 24.5048 32.1283 24.5048 32.1851C24.5048 32.2312 24.5199 32.2664 24.5509 32.2901C24.5808 32.3146 24.6237 32.3265 24.6806 32.3265C24.8562 32.3265 25.1091 32.1756 25.4368 31.8733C25.7656 31.5713 26.1116 31.1662 26.4737 30.6608ZM27.9628 30.6489L28.2458 30.2246L28.6881 30.1989L27.2409 32.3007C27.603 32.2312 27.9683 32.0544 28.3379 31.7683C28.7073 31.4824 29.0449 31.1159 29.3501 30.6681L29.3877 30.709C29.0695 31.1747 28.7225 31.5508 28.3443 31.8369C27.966 32.122 27.5826 32.3007 27.1905 32.3714C26.8433 32.9758 26.4503 33.4352 26.011 33.7502C25.572 34.0652 25.1038 34.2227 24.6077 34.2227C24.3024 34.2227 24.0602 34.1583 23.8802 34.0309C23.7003 33.9034 23.6103 33.7341 23.6103 33.523C23.6103 33.3474 23.6736 33.2018 23.7988 33.086C23.9243 32.9693 24.0797 32.9114 24.2648 32.9114C24.3131 32.9114 24.3569 32.9135 24.3965 32.9179C24.4362 32.9221 24.4738 32.9274 24.5102 32.9361L24.4973 32.9917C24.4802 32.9917 24.4631 32.9907 24.4438 32.9895C24.4244 32.9885 24.402 32.9885 24.3741 32.9885C24.2488 32.9885 24.1448 33.0379 24.0624 33.1374C23.9799 33.237 23.9382 33.3636 23.9382 33.5166C23.9382 33.7053 24.0024 33.8583 24.1309 33.9762C24.2595 34.093 24.4288 34.1519 24.6387 34.1519C24.9547 34.1519 25.2505 34.0598 25.5269 33.8755C25.8032 33.6914 26.1043 33.3784 26.431 32.9371C26.5253 32.8117 26.6613 32.6167 26.8391 32.3522C27.017 32.0876 27.1529 31.8948 27.2474 31.7758L27.2281 31.7598C27.0255 31.9741 26.8284 32.1359 26.6388 32.245C26.448 32.3554 26.2702 32.4101 26.1043 32.4101C25.9983 32.4101 25.9082 32.3672 25.8354 32.2814C25.7613 32.1958 25.7249 32.0886 25.7249 31.9613C25.7249 31.7748 25.7828 31.5723 25.8975 31.3558C26.0132 31.1395 26.1716 30.938 26.3742 30.7517C26.565 30.5738 26.7641 30.4336 26.973 30.3317C27.1808 30.2299 27.364 30.1797 27.5237 30.1797C27.6597 30.1797 27.7647 30.2194 27.8386 30.2997C27.9136 30.379 27.9543 30.4957 27.9628 30.6489ZM27.4797 30.2376C27.3963 30.2376 27.2891 30.2793 27.1594 30.3628C27.0299 30.4464 26.897 30.5621 26.7608 30.709C26.5637 30.9178 26.4073 31.1363 26.2916 31.3635C26.1749 31.5905 26.117 31.7855 26.117 31.9484C26.117 32.0598 26.1374 32.1412 26.1771 32.1948C26.2167 32.2482 26.2777 32.275 26.3624 32.275C26.4577 32.275 26.5712 32.2333 26.7032 32.1507C26.8337 32.0684 26.9795 31.9451 27.1402 31.7823C27.3244 31.5937 27.4722 31.3892 27.5836 31.1662C27.6939 30.9445 27.7497 30.7517 27.7497 30.5856C27.7497 30.4646 27.7283 30.3758 27.6854 30.3211C27.6427 30.2655 27.5741 30.2376 27.4797 30.2376ZM33.407 29.5626C32.9593 30.3661 32.5532 30.9692 32.188 31.372C31.8238 31.7758 31.4477 32.0427 31.0609 32.1723C31.0898 32.1701 31.1327 32.1679 31.1894 32.1648C31.2452 32.1616 31.2806 32.1594 31.2923 32.1594C31.5752 32.1594 31.8022 32.2185 31.9738 32.335C32.1451 32.4519 32.2307 32.6029 32.2307 32.7882C32.2307 32.8054 32.2275 32.8374 32.2212 32.8857C32.219 32.9017 32.2179 32.9147 32.2179 32.9232C32.5275 32.5386 33.1211 31.9494 33.9973 31.1577C34.2191 30.9542 34.3884 30.7998 34.505 30.6928L34.5361 30.727C34.4012 30.8557 34.2041 31.0357 33.947 31.2702C33.0289 32.1112 32.443 32.7047 32.188 33.0517C32.1375 33.1641 32.0733 33.2531 31.9962 33.3175C31.9191 33.3808 31.8386 33.4128 31.7551 33.4128C31.7445 33.4128 31.7338 33.4073 31.7221 33.3968C31.7101 33.3871 31.7049 33.3764 31.7049 33.3656C31.7049 33.3484 31.7326 33.3163 31.7895 33.2681C31.8226 33.2392 31.8483 33.2157 31.8643 33.1997C31.8708 33.1718 31.8763 33.1449 31.8795 33.1192C31.8827 33.0935 31.8837 33.0668 31.8837 33.0389C31.8837 32.8149 31.7959 32.6233 31.6201 32.4637C31.4435 32.303 31.2228 32.2215 30.9571 32.2173C30.7289 32.3051 30.5498 32.3652 30.4215 32.3983C30.2929 32.4315 30.1825 32.4487 30.0904 32.4487C30.0315 32.4487 29.9898 32.4433 29.9662 32.4325C29.9415 32.4228 29.9297 32.4058 29.9297 32.3832C29.9297 32.317 30.0176 32.2654 30.1921 32.228C30.3667 32.1904 30.6271 32.1679 30.9731 32.1594C31.1402 32.1112 31.2923 32.033 31.4294 31.9257C31.5667 31.8177 31.7134 31.6558 31.8698 31.4395C32.008 31.2532 32.205 30.9413 32.4612 30.5022C32.7171 30.063 32.9228 29.7308 33.0782 29.5048C32.7954 29.4629 32.5597 29.3537 32.3722 29.177C32.1836 29.0002 32.0893 28.8031 32.0893 28.5856C32.0893 28.3843 32.1536 28.2245 32.2811 28.1035C32.4085 27.9836 32.5822 27.9237 32.8019 27.9237C32.865 27.9237 32.9281 27.9311 32.9914 27.9471C33.0558 27.9633 33.1189 27.9878 33.181 28.0222L33.1628 28.0661C33.1059 28.0349 33.0459 28.0114 32.9829 27.9965C32.9186 27.9825 32.852 27.975 32.7835 27.975C32.5993 27.975 32.4482 28.0361 32.3305 28.1583C32.2127 28.2814 32.1536 28.4325 32.1536 28.6125C32.1536 28.8084 32.2447 28.9894 32.4258 29.1533C32.6079 29.3184 32.8351 29.4202 33.1059 29.4598C33.407 28.9884 33.7691 28.6103 34.1912 28.3252C34.6122 28.0404 35.0096 27.8979 35.3824 27.8979C35.5324 27.8979 35.6513 27.9344 35.7381 28.0062C35.8249 28.079 35.8688 28.1776 35.8688 28.3028C35.8688 28.4774 35.7895 28.6542 35.6321 28.8341C35.4735 29.0142 35.2592 29.1693 34.9893 29.299C34.8072 29.3848 34.5972 29.4512 34.3573 29.4985C34.1173 29.5454 33.8689 29.5691 33.6117 29.5691C33.5549 29.5691 33.512 29.5679 33.4841 29.5669C33.4563 29.5659 33.4306 29.5647 33.407 29.5626ZM33.4412 29.5112C33.4649 29.5133 33.4905 29.5145 33.5205 29.5155C33.5496 29.5165 33.5934 29.5177 33.6524 29.5177C33.8612 29.5177 34.0572 29.5005 34.2416 29.4673C34.4257 29.4342 34.5995 29.3836 34.7621 29.3174C35.0258 29.2122 35.24 29.0688 35.4039 28.8877C35.5678 28.7056 35.6503 28.5256 35.6503 28.3477C35.6503 28.2375 35.6171 28.1464 35.5496 28.0758C35.4832 28.0039 35.3964 27.9686 35.2892 27.9686C35.014 27.9686 34.712 28.1035 34.384 28.3746C34.0572 28.6457 33.7424 29.0239 33.4412 29.5112ZM36.2813 30.2054C36.1976 30.3286 36.0798 30.5 35.9299 30.7197C35.3418 31.5862 35.0472 32.0779 35.0472 32.198C35.0472 32.229 35.06 32.2569 35.0846 32.2826C35.1103 32.3073 35.1403 32.3201 35.1757 32.3201C35.3525 32.3201 35.6149 32.1669 35.9653 31.8604C36.3145 31.5541 36.667 31.1567 37.0204 30.6671L37.074 30.7013C36.6509 31.2477 36.2716 31.6678 35.9352 31.9591C35.5989 32.2515 35.3256 32.3971 35.1168 32.3971C35.0203 32.3971 34.9412 32.364 34.8779 32.2986C34.8147 32.2322 34.7836 32.1477 34.7836 32.0447C34.7836 31.9761 34.8061 31.8841 34.8522 31.7683C34.8983 31.6538 34.9614 31.5369 35.0407 31.4203L35.8324 30.2376L36.2813 30.2054ZM36.442 29.3162C36.442 29.2563 36.4634 29.2049 36.5063 29.1631C36.5492 29.1212 36.6016 29.0999 36.6625 29.0999C36.7206 29.0999 36.773 29.1212 36.8179 29.1631C36.863 29.2049 36.8855 29.2541 36.8855 29.3107C36.8855 29.3688 36.862 29.4212 36.8147 29.4673C36.7675 29.5133 36.7151 29.5369 36.6562 29.5369C36.5951 29.5369 36.5437 29.5155 36.5031 29.4736C36.4622 29.4319 36.442 29.3795 36.442 29.3162ZM40.4129 28.8246C40.4356 28.7592 40.4526 28.7046 40.4623 28.6595C40.473 28.6146 40.4785 28.5739 40.4785 28.5385C40.4785 28.4217 40.4538 28.3329 40.4045 28.2718C40.3553 28.2107 40.2845 28.1808 40.1924 28.1808C40.0006 28.1808 39.7596 28.3522 39.4693 28.6939C39.18 29.0366 38.8361 29.5574 38.4387 30.2568H39.8537L39.7756 30.3276H38.3894L37.1307 32.3522C36.7354 32.9907 36.3336 33.4609 35.9255 33.763C35.5174 34.0652 35.0814 34.2162 34.6165 34.2162C34.278 34.2162 34.0154 34.1519 33.8291 34.0244C33.6427 33.8969 33.5494 33.7181 33.5494 33.4888C33.5494 33.3248 33.6083 33.1888 33.7273 33.0775C33.845 32.9671 33.9939 32.9114 34.1718 32.9114C34.2179 32.9114 34.2628 32.9135 34.3078 32.9179C34.3528 32.9221 34.399 32.9274 34.4451 32.9361L34.4322 32.979C34.4182 32.9768 34.4054 32.9758 34.3947 32.9758C34.3838 32.9758 34.3668 32.9758 34.3411 32.9758C34.2029 32.9758 34.0894 33.0239 33.9994 33.1192C33.9094 33.2145 33.8644 33.3357 33.8644 33.4824C33.8644 33.6817 33.9361 33.8445 34.0797 33.973C34.2221 34.1005 34.4085 34.1648 34.6369 34.1648C34.9861 34.1648 35.3353 34.0052 35.6843 33.6859C36.0337 33.3667 36.46 32.8044 36.9615 31.9977L38.0037 30.3276H37.4886L37.5485 30.2568H38.0413L38.6145 29.403C38.8949 28.982 39.18 28.6617 39.4681 28.441C39.7574 28.2204 40.038 28.11 40.3103 28.11C40.4494 28.11 40.563 28.1421 40.6498 28.2075C40.7366 28.2718 40.7805 28.3554 40.7805 28.4582C40.7805 28.5577 40.7484 28.6403 40.683 28.7056C40.6177 28.7699 40.5277 28.8096 40.4129 28.8246ZM39.1169 31.3046C39.0621 31.4171 39.0214 31.5251 38.9957 31.6291C38.969 31.7331 38.9562 31.8327 38.9562 31.928C38.9562 32.0576 38.986 32.1584 39.0471 32.228C39.1082 32.2976 39.195 32.333 39.3075 32.333C39.5828 32.333 39.9051 32.1841 40.2759 31.8873C40.6464 31.5905 41.015 31.1812 41.3814 30.6596L41.4253 30.6918C41.0527 31.2413 40.6561 31.673 40.2351 31.9858C39.8141 32.2986 39.4264 32.4552 39.0696 32.4552C38.9174 32.4552 38.7954 32.4079 38.7054 32.3138C38.6153 32.2193 38.5704 32.0908 38.5704 31.928C38.5704 31.7277 38.6335 31.5091 38.76 31.2724C38.8874 31.0366 39.06 30.8203 39.2775 30.6242C39.4509 30.469 39.631 30.3489 39.8173 30.2633C40.0036 30.1775 40.1784 30.1346 40.3391 30.1346C40.4505 30.1346 40.5363 30.1562 40.5952 30.1989C40.6551 30.2418 40.6851 30.3019 40.6851 30.379C40.6851 30.5235 40.563 30.6681 40.3188 30.8138C40.0744 30.9584 39.6739 31.1223 39.1169 31.3046ZM39.1413 31.2467C39.5163 31.1342 39.813 30.9981 40.0306 30.8407C40.2481 30.6821 40.3573 30.5267 40.3573 30.3713C40.3573 30.3169 40.3423 30.276 40.3134 30.2483C40.2845 30.2194 40.2416 30.2054 40.1848 30.2054C40.0585 30.2054 39.8924 30.306 39.6836 30.5064C39.4746 30.7068 39.2947 30.9542 39.1413 31.2467Z" stroke="#0094D6" stroke-width="0.303048" stroke-miterlimit="2.61313"/>
</g>
</g>
</svg>
